PathFileType	4	(X/Y/Z)	C:/Users/beibeiliu/ov580/test_trc\sequence.7_training_dense_right.trc
DataRate	CameraRate	NumFrames	NumMarkers	Units	OrigDataRate	OrigDataStartFrame	OrigNumFrames
120	120	16	19	mm	120	39	310
Frame#	Time	ThumbCMC			ThumbMCP			ThumbIP			ThumbTip			IndexMCP			IndexPIP			IndexTip			MiddleMCP			MiddlePIP			MiddleTip			RingMCP			RingPIP			RingTip			PinkyMCP			PinkyPIP			PinkyTip			BackHand1			BackHand2			BackHand3	
		X0	Y0	Z0	X1	Y1	Z1	X2	Y2	Z2	X3	Y3	Z3	X4	Y4	Z4	X5	Y5	Z5	X6	Y6	Z6	X7	Y7	Z7	X8	Y8	Z8	X9	Y9	Z9	X10	Y10	Z10	X11	Y11	Z11	X12	Y12	Z12	X13	Y13	Z13	X14	Y14	Z14	X15	Y15	Z15	X16	Y16	Z16	X17	Y17	Z17	X18	Y18	Z18	
38	0.316667	163.069	-17.6161	34.8094	144.147	-21.5227	19.547	132.923	-22.3199	-3.19245	116.363	-21.7787	-17.1129	170.343	-13.131	-31.6609	164.411	-15.1438	-56.0489	157.933	-20.4647	-78.4391	193.856	-15.4443	-43.4723	192.371	-18.4282	-65.5673	195.259	-23.1276	-91.9192	214.098	-21.0094	-35.5685	212.722	-22.6241	-52.7562	219.697	-25.2207	-73.0063	232.348	-28.4352	-20.7765	238.16	-31.0579	-34.611	244.396	-24.0832	-51.0715	208.137	-10.2047	7.81697	214.948	-6.72968	34.7549	184.74	-2.78866	23.4627	
39	0.325	165.206	-19.0778	34.4431	142.107	-23.0611	16.165	129.726	-23.5758	-2.27554	120.483	-26.7094	-17.2462	167.451	-13.8071	-35.6785	160.621	-16.9263	-54.8391	160.296	-22.5362	-78.9901	188.897	-15.2712	-42.0999	191.916	-19.314	-64.2986	195.551	-23.152	-88.0466	210.463	-21.5985	-32.7456	213.544	-23.3128	-54.4032	217.214	-25.148	-75.9433	229.397	-30.4459	-18.1713	238.801	-31.6985	-34.2785	247.726	-26.5512	-45.1838	211.399	-13.0737	8.2046	209.76	-7.51611	36.6925	184.349	-2.92207	22.7659	
40	0.333333	166.121	-21.8794	34.8047	147.521	-27.0113	16.0372	130.487	-27.9956	0.52717	116.255	-29.8905	-12.0408	169.307	-16.9718	-30.5463	161.907	-19.6407	-57.7352	159.03	-25.0178	-76.5436	194.302	-18.2767	-38.4943	193.094	-21.3753	-61.875	195.565	-25.7332	-91.5668	209.99	-23.3723	-32.8646	214.843	-26.2394	-53.119	220.157	-27.4937	-73.2852	230.457	-32.9725	-15.6502	237.595	-33.9945	-32.057	246.015	-31.0179	-45.4803	209.087	-12.536	10.3305	212.735	-11.0663	36.5943	183.603	-6.20996	21.3059	
41	0.341667	160.001	-24.5837	36.2648	144.815	-30.2941	18.7645	130.078	-30.7341	0.0134584	116.371	-33.2058	-14.7028	170.144	-18.6468	-30.7594	162.088	-22.7578	-55.0431	160.477	-28.3455	-78.999	193.126	-20.4934	-39.1038	192.314	-23.2168	-64.0315	190.352	-27.0198	-88.4494	212.939	-25.8059	-32.8743	214.068	-26.7196	-54.3036	216.069	-29.5721	-72.2165	228.81	-32.9614	-18.8225	238.394	-35.9711	-33.8578	243.741	-30.2241	-48.0941	213.347	-16.3969	12.727	211.617	-12.6605	36.4846	186.621	-7.93618	21.9683	
42	0.35	159.339	-26.8052	35.7139	145.989	-34.8817	15.0325	127.923	-36.5537	0.627484	118.398	-38.7908	-12.4858	166.068	-21.7896	-33.0848	160.665	-25.6443	-57.6268	159.592	-32.2938	-80.1667	192.866	-23.2079	-37.8418	191.193	-25.4744	-62.9423	195.425	-30.6323	-88.8332	213.077	-28.434	-33.4968	210.994	-30.1897	-53.8973	212.782	-32.3964	-73.7673	231.68	-37.3851	-16.4157	236.489	-39.137	-32.3639	245.803	-35.6426	-45.4159	209.962	-19.2208	11.8739	207.976	-16.019	37.6497	183.047	-11.4577	21.2207	
43	0.358333	160.727	-33.4408	37.5295	140.914	-38.2169	15.8027	131.907	-42.8827	2.00197	120.542	-45.2772	-13.9983	162.839	-24.4992	-32.6437	160.469	-29.4486	-53.5963	157.409	-35.508	-74.6266	190.943	-27.85	-36.4293	192.084	-30.0448	-62.0223	190.456	-33.5106	-84.8139	211.197	-33.579	-33.468	215.113	-36.1616	-52.6935	213.291	-37.1143	-73.5606	230.186	-41.7232	-16.6025	234.538	-42.7671	-32.0723	242.079	-38.8989	-47.9719	207.852	-22.6321	9.79299	208.326	-20.5593	36.1862	183.3	-16.1069	21.199	
44	0.366667	158.379	-36.9222	35.6798	143.874	-44.2441	17.2973	131.311	-46.3508	-3.26909	117.033	-50.9189	-13.6438	167.476	-30.0771	-32.1597	157.403	-33.2683	-56.9153	155.883	-40.2982	-79.8873	191.237	-32.1798	-40.7098	188.054	-33.3344	-60.4914	191.154	-39.22	-88.2761	209.195	-37.9314	-30.1082	211.626	-39.318	-55.297	215.778	-42.148	-74.2144	225.593	-44.972	-15.1314	233.984	-47.0185	-33.1391	241.793	-42.8915	-50.9945	206.037	-26.5771	13.1274	210.47	-24.1455	35.7748	180.471	-20.0958	20.8611	
45	0.375	161.984	-41.6105	33.6807	140.222	-48.5166	15.9363	126.631	-50.7744	0.239558	120.054	-54.8039	-13.2865	163.45	-35.1835	-33.3638	158.799	-38.8568	-57.6986	157.513	-45.7663	-77.2169	187.218	-36.0731	-41.4056	189.252	-39.8729	-64.9406	189.574	-43.0738	-87.7786	210.272	-42.5496	-29.5335	211.514	-43.7195	-55.4855	215.65	-47.2493	-74.0613	226.732	-48.8381	-19.2444	234.338	-52.4332	-30.6173	239.074	-48.249	-46.1017	205.93	-31.5525	10.924	204.869	-27.9111	37.9073	179.602	-23.5725	24.8011	
46	0.383333	159.24	-45.2165	36.3576	140.029	-52.3865	19.1248	130.963	-55.2442	-2.13676	119.808	-57.5881	-17.955	162.471	-38.2746	-31.8054	157.223	-42.6261	-53.6943	154.676	-49.3543	-76.3082	186.917	-39.6933	-37.4262	190.692	-43.1593	-59.9416	189.725	-46.1105	-88.3797	205.183	-44.0237	-30.7921	209.097	-47.5317	-55.0074	213.91	-51.071	-71.4087	226.238	-52.8461	-14.2701	234.658	-55.6495	-32.4078	240.463	-50.4361	-49.7743	208.754	-34.7022	10.1737	204.506	-28.962	36.2608	180.036	-27.5745	22.4877	
47	0.391667	157.3	-45.3784	39.5377	137.877	-52.6832	17.1574	129.011	-55.6119	-1.75263	118.975	-60.8209	-12.5567	161.514	-38.9074	-32.2263	157.844	-43.2261	-56.8556	157.471	-50.862	-77.7467	184.591	-39.9486	-36.9661	186.473	-42.7587	-58.7259	189.12	-47.4673	-87.8791	210.078	-46.0568	-32.7001	208.006	-48.2547	-53.493	214.299	-52.3213	-75.4045	225.78	-54.0813	-13.5476	230.753	-55.1212	-35.6324	239.194	-53.8563	-50.968	204.626	-35.163	13.4447	205.719	-31.9848	36.3984	178.718	-29.0872	23.9366	
48	0.4	156.17	-46.2674	37.3923	142.297	-54.7901	18.695	124.975	-55.7689	-1.00119	115.443	-59.4385	-18.1433	162.244	-38.9851	-29.3805	155.297	-43.9175	-56.4453	152.698	-49.0002	-76.6391	185.942	-40.0566	-40.4175	188.708	-43.4091	-62.1227	187.406	-46.4307	-87.1335	208.683	-47.048	-29.1601	207.556	-48.8627	-53.9219	212.989	-51.8148	-74.2929	223.753	-53.5092	-17.528	231.509	-56.8055	-33.1291	238.258	-54.5872	-48.1946	205.06	-37.212	9.69663	204.275	-30.8048	40.0302	178.897	-27.7502	24.0985	
49	0.408333	158.313	-44.1049	34.4163	142.854	-53.2197	16.8763	125.51	-53.92	-2.87689	118.545	-58.9617	-14.9526	162.181	-36.6924	-31.4473	158.817	-41.0588	-55.7573	154.788	-47.3409	-78.0488	187.947	-39.1341	-40.3348	185.012	-41.1376	-60.7406	185.747	-44.9431	-85.2572	204.753	-45.0254	-32.9114	212.112	-47.9996	-53.0908	209.222	-50.9444	-71.3586	226.093	-53.8191	-14.4555	230.639	-55.0482	-30.8301	238.094	-52.547	-51.9819	207.408	-34.9066	9.64888	207.039	-31.8786	40.2531	183.678	-27.1261	21.9745	
50	0.416667	155.638	-43.2151	37.8942	143.268	-50.4675	16.7149	129.087	-51.9725	-3.22966	116.876	-55.474	-17.606	163.324	-34.8351	-29.7524	157.533	-38.5989	-53.0195	152.301	-45.2132	-77.512	186.751	-35.9695	-38.6639	187.253	-39.781	-62.7366	191.225	-43.5616	-85.9767	207.862	-42.4714	-31.7879	209.242	-45.3538	-52.4137	212.703	-48.1328	-75.3882	222.913	-49.3152	-21.2944	228.176	-52.4853	-35.3263	241.022	-49.5783	-50.6118	206.881	-32.0899	12.808	204.367	-30.5329	38.5328	181.951	-25.592	23.6646	
51	0.425	157.052	-40.8267	32.0649	141.215	-48.3317	16.0744	129.883	-50.2143	-5.20832	115.863	-52.2802	-22.0475	159.708	-32.2713	-34.675	160.461	-35.2452	-55.6068	151.573	-41.5221	-79.8762	186.789	-34.2595	-40.4103	187.236	-36.6119	-63.4014	189.597	-41.3304	-90.9867	205.734	-39.2138	-34.4583	211.214	-43.1482	-53.704	211.766	-45.7791	-73.7976	224.196	-49.3634	-17.7372	232.67	-50.2905	-37.0055	237.969	-45.6311	-54.1974	206.206	-30.3859	9.66488	208.28	-27.5757	38.1404	182.716	-23.1976	23.3268	
52	0.433333	156.35	-40.3648	30.9255	138.593	-47.1609	11.8148	130.222	-49.9094	-6.27778	114.8	-52.2316	-19.9058	162.037	-29.9888	-33.5676	157.836	-33.3776	-56.4577	154.569	-38.3282	-78.0113	185.339	-31.9532	-41.5063	182.899	-33.8498	-67.025	189.486	-37.9789	-87.4578	203.201	-37.2525	-33.6498	206.577	-39.7379	-54.1647	211.582	-43.0004	-78.7853	226.574	-46.5835	-21.2076	230.153	-48.3246	-34.3229	234.949	-44.9894	-52.2034	204.436	-29.6341	10.8014	208.955	-28.0009	35.7568	180.109	-21.189	23.8304	
53	0.441667	160.256	-39.6114	33.506	143.096	-46.047	11.5455	125.68	-48.2755	-2.36754	116.258	-51.4794	-19.8065	163.957	-28.3978	-35.9117	159.28	-31.9945	-58.7077	155.775	-37.7134	-79.2923	187.746	-30.2095	-38.4708	183.323	-31.5921	-66.826	183.522	-36.105	-89.6964	207.514	-36.5376	-37.3952	206.463	-38.036	-56.1426	210.961	-40.6547	-77.4169	225.743	-45.53	-20.8771	229.805	-46.796	-34.3689	239.639	-41.6048	-48.7667	204.434	-29.4227	11.0929	209.305	-24.6563	33.0448	180.433	-20.4274	25.1844	
